# xmcd
#
# Track frame offsets: 
#        150
#        21354
#        51279
#        78449
#        106647
#        141978
#        167184
#
# Disc length: 2536 seconds
#
# Revision: 0
# Processed by: cddbd v1.5.2PL0 Copyright (c) Steve Scherf et al.
# Submitted via: ExactAudioCopyFreeDBPlugin 1.0
#
DISCID=5709e607
DTITLE=Robert Cray - Paris Bercy 2006
DYEAR=2006
DGENRE=Blues
TTITLE0=Phone Booth
TTITLE1=Poor Johnny
TTITLE2=Our Last Time
TTITLE3=The 12 Years Old Boy
TTITLE4=Twenty
TTITLE5=Right Next Door
TTITLE6=Smoking Gun
EXTD=
EXTT0=
EXTT1=
EXTT2=
EXTT3=
EXTT4=
EXTT5=
EXTT6=
PLAYORDER=
